SplineFontDB: 3.2
FontName: DSESeriesA
FullName: DSE Series A
FamilyName: DSE Series A
Weight: Regular
Copyright: Copyright (c) 2022, Darren Embry
UComments: "2022-5-7: Created with FontForge (http://fontforge.org)"
Version: 001.000
ItalicAngle: 0
UnderlinePosition: -144
UnderlineWidth: 72
Ascent: 960
Descent: 192
InvalidEm: 0
LayerCount: 2
Layer: 0 0 "Back" 1
Layer: 1 0 "Fore" 0
XUID: [1021 323 -1642646731 11131862]
OS2Version: 0
OS2_WeightWidthSlopeOnly: 0
OS2_UseTypoMetrics: 1
CreationTime: 1651977848
ModificationTime: 1717803190
OS2TypoAscent: 0
OS2TypoAOffset: 1
OS2TypoDescent: 0
OS2TypoDOffset: 1
OS2TypoLinegap: 0
OS2WinAscent: 0
OS2WinAOffset: 1
OS2WinDescent: 0
OS2WinDOffset: 1
HheadAscent: 0
HheadAOffset: 1
HheadDescent: 0
HheadDOffset: 1
OS2Vendor: 'PfEd'
Lookup: 258 0 0 "kern" { "p4f3"  "p4f2"  "p4f1"  "p3f3"  "p3f2"  "p3f1"  "p2f3"  "p2f2"  "p2f1"  "p1f3"  "p1f2"  "p1f1"  } ['kern' ('latn' <'dflt' > ) ]
MarkAttachClasses: 1
DEI: 91125
KernClass2: 8+ 8 "p4f3"
 1 A
 1 L
 1 T
 1 V
 1 W
 1 Y
 4 four
 5 seven
 1 J
 1 T
 1 V
 1 W
 1 Y
 4 four
 5 seven
 29 {} 29 {} 29 {} 29 {} 29 {} 29 {} 29 {} 29 {} 29 {} 29 {} 29 {} 29 {} 29 {} 29 {} 29 {} 29 {} 29 {} 29 {} 29 {} 29 {} 29 {} 29 {} 29 {} 29 {} 29 {} 29 {} 29 {} 29 {} 29 {} 29 {} 29 {} 29 {} 29 {} 29 {} 29 {} 29 {} 29 {} 29 {} 29 {} 29 {} 29 {} 29 {} 29 {} 29 {} 29 {} 29 {} 29 {} 29 {} 29 {} 29 {} 29 {} 29 {} 29 {} 29 {} 29 {} 29 {} 29 {} 29 {} 29 {} 29 {} 29 {} 29 {} 29 {} 29 {}
KernClass2: 8+ 13 "p4f2"
 1 A
 1 L
 1 T
 1 V
 1 W
 1 Y
 4 four
 5 seven
 1 G
 1 O
 1 Q
 1 S
 1 X
 1 Z
 3 two
 5 three
 3 six
 5 eight
 4 nine
 4 zero

StartChar: A
Encoding: 65 65 1
Width: 338
Flags: HW
HStem: 0 21G<1 77.492 260.508 337> 192 72<119.43 218.57> 748 20G<129.562 208.438> 748 20G<129.562 208.438>
VStem: 1 336
LayerCount: 2
Fore
SplineSet
133 768 m 1xe8
 205 768 l 1
 337 0 l 1
 263.9453125 0 l 1
 230.9453125 192 l 1
 107.0546875 192 l 1
 74.0546875 0 l 1
 1 0 l 1
 133 768 l 1xe8
119.4296875 264 m 5
 218.5703125 264 l 1
 169 552.40625 l 1
 119.4296875 264 l 5
EndSplineSet
EndChar

StartChar: B
Encoding: 66 66 2
Width: 290
Flags: HW
HStem: -0.000976562 72.001<73 191.323> 360 72<73 186.002> 696 72<73 185.566>
VStem: 1 72<72 360 432 696> 216.987 71.9971<97.9539 334.618 464.781 662.105>
LayerCount: 2
Fore
SplineSet
271.610351562 469.711914062 m 0
 264.80859375 441.96484375 249.825195312 417.3203125 229.543945312 398.48828125 c 1
 253.400390625 378.405273438 270.897460938 350.545898438 277.849609375 318.861328125 c 0
 285.142578125 285.623046875 288.984375 251.100585938 288.984375 215.6875 c 0
 288.984375 180.2734375 285.140625 146.375 277.848632812 113.137695312 c 0
 263.671875 48.517578125 206.045898438 -0.0009765625 137.1953125 -0.0009765625 c 1
 1 0 l 1
 1 768 l 1
 131.748046875 768 l 1
 199.385742188 768 256.189453125 721.198242188 271.611328125 658.287109375 c 0
 279.0390625 628.008789062 282.970703125 596.366210938 282.970703125 563.8125 c 0
 282.970703125 531.2578125 279.034179688 499.991210938 271.610351562 469.711914062 c 0
73 432 m 1
 131.748046875 432 l 1
 165.56640625 432 193.965820312 455.40234375 201.676757812 486.857421875 c 0
 207.75 511.631835938 210.975585938 537.2109375 210.975585938 563.846679688 c 0
 210.975585938 590.481445312 207.759765625 616.370117188 201.681640625 641.14453125 c 0
 193.970703125 672.599609375 165.545898438 696 131.748046875 696 c 1
 73 696 l 1
 73 432 l 1
73 72 m 1
 137.48828125 72 l 0
 171.912109375 72 200.431640625 96.2578125 207.521484375 128.56640625 c 0
 213.720703125 156.818359375 216.987304688 185.631835938 216.987304688 215.734375 c 0
 216.987304688 245.8359375 213.719726562 275.18359375 207.521484375 303.434570312 c 0
 200.432617188 335.744140625 171.619140625 360 137.1953125 360 c 1
 131.748046875 360 l 1
 73 360 l 5
 73 72 l 1
EndSplineSet
EndChar

StartChar: V
Encoding: 86 86 3
Width: 338
Flags: HW
LayerCount: 2
Fore
SplineSet
136 0 m 5
 202 0 l 1
 337 768 l 1
 263.896484375 768 l 1
 169 228.142578125 l 1
 74.1025390625 768 l 1
 1 768 l 1
 136 0 l 5
EndSplineSet
EndChar

StartChar: S
Encoding: 83 83 4
Width: 290
Flags: HW
HStem: -12 72<91.394 198.607> 708 72<104.021 203.979>
VStem: 1.001 72<79.2208 180> 19.001 72<524.109 694.534> 217.001 72<78.3935 265.541 612 694.481>
LayerCount: 2
Fore
SplineSet
73.0009765625 132 m 5xe8
 73.0009765625 92.26171875 105.262695312 60 145.000976562 60 c 4
 184.73828125 60 217.000976562 92.26171875 217.000976562 132 c 4
 217.000976562 226.85546875 181.483398438 317.985351562 118.033203125 388.495117188 c 4
 54.560546875 459.029296875 19.001953125 550.234375 19.0009765625 645.061523438 c 4
 19 719.5703125 79.4912109375 780 154 780 c 4
 228.508789062 780 289 719.508789062 289 645 c 5
 289 612 l 5
 217.000976562 612 l 5
 217 645 l 5
 217 679.770507812 188.770507812 708 154 708 c 4
 119.229492188 708 91.0009765625 679.83203125 91.0009765625 645.061523438 c 4xd8
 91.001953125 568.047851562 120.006835938 493.91796875 171.537109375 436.674804688 c 4
 246.916992188 352.9375 289.000976562 244.668945312 289.000976562 132 c 4
 289.000976562 52.5244140625 224.4765625 -12 145.000976562 -12 c 4
 65.5244140625 -12 1.0009765625 52.5244140625 1.0009765625 132 c 4
 1 180 l 5
 73.0009765625 180 l 5
 73.0009765625 132 l 5xe8
EndSplineSet
EndChar

StartChar: C
Encoding: 67 67 5
Width: 290
Flags: HW
HStem: -12 72<107.79 204.813> 708 72<107.789 204.813>
VStem: 1 72.002<124.506 647.814> 217.04 72<72.2587 121.031 646.909 695.69>
LayerCount: 2
Fore
SplineSet
289.040039062 646.909179688 m 1
 289.040039062 720.364257812 229.404296875 780 155.94921875 780 c 0
 90.0107421875 780 35.2041015625 731.817382812 24.6796875 668.848632812 c 0
 9.10546875 575.663085938 1 483.1953125 1 385.616210938 c 0
 1 288.036132812 9.1064453125 192.333007812 24.6806640625 99.146484375 c 0
 35.20703125 36.1767578125 90.01171875 -12 155.94921875 -12 c 0
 229.404296875 -12 289.040039062 47.576171875 289.040039062 121.03125 c 0
 289.040039062 120.971679688 289.040039062 168 289.040039062 168 c 1
 217.040039062 168 l 1
 217.040039062 168 217.040039062 121.057617188 217.040039062 121.07421875 c 0
 217.040039062 87.357421875 189.666015625 60 155.94921875 60 c 0
 125.68359375 60 100.526367188 82.1171875 95.6953125 111.017578125 c 0
 80.76953125 200.322265625 73.001953125 292.034179688 73.001953125 385.548828125 c 0
 73.001953125 479.061523438 80.76953125 567.677734375 95.6943359375 656.98046875 c 0
 100.525390625 685.884765625 125.682617188 708 155.94921875 708 c 0
 189.666015625 708 217.040039062 680.625976562 217.040039062 646.909179688 c 0
 217.040039062 624 l 1
 289.040039062 624 l 1
 289.040039062 646.909179688 l 1
EndSplineSet
EndChar

StartChar: D
Encoding: 68 68 6
Width: 290
Flags: HW
LayerCount: 2
Fore
SplineSet
126.712890625 696 m 1
 162.717773438 696 192.587890625 669.444335938 197.881835938 634.909179688 c 0
 210.50390625 552.561523438 217.051757812 468.224609375 217.051757812 382.370117188 c 0
 217.051757812 296.516601562 210.50390625 215.438476562 197.881835938 133.091796875 c 0
 192.588867188 98.5556640625 162.717773438 72 126.712890625 72 c 0
 73 72 l 1
 73 696 l 1
 126.712890625 696 l 1
126.712890625 0 m 1
 198.723632812 0 258.462890625 53.1142578125 269.05078125 122.182617188 c 0
 282.22265625 208.110351562 289.053710938 292.711914062 289.053710938 382.298828125 c 0
 289.053710938 471.88671875 282.221679688 559.891601562 269.049804688 645.819335938 c 0
 258.461914062 714.887695312 198.72265625 768 126.712890625 768 c 0
 1 768 l 1
 1 0 l 1
 126.712890625 0 l 1
EndSplineSet
EndChar

StartChar: E
Encoding: 69 69 7
Width: 260
Flags: HW
HStem: 0 72<73 259> 360 72<73 193> 696 72<73 253>
VStem: 1 72<72 360 432 696>
LayerCount: 2
Fore
SplineSet
253 768 m 1
 253 696 l 1
 73 696 l 1
 73 432 l 1
 193 432 l 1
 193 360 l 1
 73 360 l 1
 73 72 l 1
 259 72 l 1
 259 0 l 1
 1 0 l 1
 1 768 l 5
 253 768 l 1
EndSplineSet
EndChar

StartChar: F
Encoding: 70 70 8
Width: 260
Flags: HW
VStem: 1 258
LayerCount: 2
Fore
SplineSet
73 360 m 1
 181 360 l 1
 181 432 l 1
 73 432 l 1
 73 696 l 1
 259 696 l 1
 259 768 l 1
 1 768 l 1
 1 0 l 1
 73 0 l 1
 73 360 l 1
EndSplineSet
EndChar

StartChar: G
Encoding: 71 71 9
Width: 290
Flags: HW
LayerCount: 2
Fore
SplineSet
289.040039062 121.090820312 m 5
 289.040039062 48.7265625 229.404296875 -12 155.94921875 -12 c 0
 90.01171875 -12 35.2080078125 36.1767578125 24.6806640625 99.146484375 c 0
 9.1064453125 192.333007812 1 288.036132812 1 385.616210938 c 0
 1 483.1953125 9.10546875 575.663085938 24.6796875 668.848632812 c 0
 35.2041015625 731.817382812 90.0107421875 780 155.94921875 780 c 0
 229.404296875 780 289.040039062 720.364257812 289.040039062 646.909179688 c 0
 289.040039062 624 l 1
 217.040039062 624 l 1
 217.040039062 646.909179688 l 1
 217.040039062 680.625976562 189.666015625 708 155.94921875 708 c 0
 125.682617188 708 100.525390625 685.884765625 95.6943359375 656.98046875 c 0
 80.76953125 567.677734375 73.001953125 479.061523438 73.001953125 385.548828125 c 0
 73.001953125 292.034179688 80.76953125 200.322265625 95.6953125 111.017578125 c 0
 100.526367188 82.1171875 125.68359375 60 155.94921875 60 c 0
 189.666015625 60 217.040039062 88.46484375 217.040039062 121.090820312 c 1
 217.040039062 288 l 1
 157.040039062 288 l 1
 157.040039062 360 l 1
 289.040039062 360 l 1
 289.040039062 121.090820312 l 5
EndSplineSet
EndChar

StartChar: H
Encoding: 72 72 10
Width: 290
Flags: HW
LayerCount: 2
Fore
SplineSet
1 768 m 5
 73 768 l 5
 73 432 l 5
 217 432 l 5
 217 768 l 5
 289 768 l 5
 289 0 l 5
 217 0 l 5
 217 360 l 5
 73 360 l 5
 73 0 l 5
 1 0 l 5
 1 768 l 5
EndSplineSet
EndChar

StartChar: N
Encoding: 78 78 11
Width: 290
Flags: HW
LayerCount: 2
Fore
SplineSet
73 516 m 1
 229.000976562 0 l 1
 289 0 l 1
 289 768 l 1
 217 768 l 1
 217 768 216.850585938 288.984375 217 288.4921875 c 1
 72.033203125 768 l 1
 1 768 l 1
 1 0 l 1
 73 0 l 1
 73 516 l 1
EndSplineSet
EndChar

StartChar: O
Encoding: 79 79 12
Width: 314
Flags: HW
HStem: -12 72<107.142 206.939> 708 72<107.143 206.939>
VStem: 1 72.002<123.39 646.732> 241.081 72.001<121.269 644.611>
LayerCount: 2
Fore
SplineSet
218.573242188 655.865234375 m 4
 213.657226562 685.401367188 187.9609375 708 157.041992188 708 c 4
 126.122070312 708 100.424804688 685.39453125 95.509765625 655.861328125 c 4
 80.7060546875 566.91015625 73.001953125 478.677734375 73.001953125 385.552734375 c 4
 73.001953125 292.426757812 80.705078125 201.090820312 95.5087890625 112.138671875 c 4
 100.422851562 82.6083984375 126.12109375 60 157.041015625 60 c 4
 187.9609375 60 213.658203125 82.6044921875 218.573242188 112.138671875 c 4
 233.376953125 201.08984375 241.081054688 289.322265625 241.081054688 382.446289062 c 4
 241.081054688 475.5703125 233.376953125 566.9140625 218.573242188 655.865234375 c 4
289.596679688 100.317382812 m 4
 279.005859375 36.6953125 223.6484375 -12 157.041015625 -12 c 4
 90.4326171875 -12 35.07421875 36.6982421875 24.486328125 100.31640625 c 4
 9.0380859375 193.137695312 1 288.4453125 1 385.62109375 c 4
 1 482.794921875 9.0390625 574.86328125 24.486328125 667.682617188 c 4
 35.0751953125 731.306640625 90.43359375 780 157.041992188 780 c 4
 223.6484375 780 279.005859375 731.302734375 289.596679688 667.681640625 c 4
 305.044921875 574.857421875 313.08203125 479.551757812 313.08203125 382.37890625 c 4
 313.08203125 285.205078125 305.044921875 193.140625 289.596679688 100.317382812 c 4
EndSplineSet
EndChar

StartChar: R
Encoding: 82 82 13
Width: 290
Flags: HW
HStem: 0 21G<1 73.001 209.077 289.001> 336 72<73.001 123.847> 696 72<73.001 174.821>
VStem: 1 72.001<0 336 408 696> 216.896 71.9648<0 29.2272 451.909 652.097>
LayerCount: 2
Fore
SplineSet
110.981445312 335.997070312 m 1
 73.0009765625 336 l 1
 73.0009765625 0 l 1
 1 0 l 1
 1 768 l 1
 110.981445312 768 l 1
 179.865234375 768 239.041015625 726.581054688 264.95703125 667.19921875 c 0
 280.33203125 631.97265625 288.861328125 593.083984375 288.861328125 552.21875 c 0
 288.861328125 511.3515625 280.330078125 472.021484375 264.953125 436.791992188 c 0
 250.215820312 403.028320312 224.961914062 375.266601562 193.02734375 357.39453125 c 1
 289.000976562 0 l 1
 214.44921875 0 l 1
 124.051757812 336.506835938 l 1
 119.6875 336.166015625 115.432617188 335.997070312 110.981445312 335.997070312 c 1
110.981445312 407.997070312 m 1
 150.342773438 407.997070312 184.15625 431.666015625 198.965820312 465.595703125 c 0
 210.498046875 492.017578125 216.896484375 521.513671875 216.896484375 552.1640625 c 0
 216.896484375 582.813476562 210.5 611.98046875 198.967773438 638.400390625 c 0
 184.159179688 672.33203125 150.342773438 696 110.981445312 696 c 1
 73.0009765625 696 l 1
 73.0009765625 408 l 1
 110.981445312 407.997070312 l 1
EndSplineSet
EndChar

StartChar: I
Encoding: 73 73 14
Width: 74
Flags: HW
HStem: 0 21G<1 73> 748 20G<1 73> 748 20G<1 73>
VStem: 1 72<0 768>
LayerCount: 2
Fore
SplineSet
1 768 m 5xd0
 73 768 l 5
 73 0 l 5
 1 0 l 5
 1 768 l 5xd0
EndSplineSet
EndChar

StartChar: J
Encoding: 74 74 15
Width: 290
Flags: HW
HStem: -12.0059 72.0029<81.587 195.533> 748 20G<217.004 289.004> 748 20G<217.004 289.004>
VStem: 217.005 72<81.4841 768>
LayerCount: 2
Fore
SplineSet
289.004882812 138 m 1xd0
 289.005859375 61.666015625 232.057617188 -1.0390625 158.583007812 -10.716796875 c 0
 152.125 -11.5673828125 145.538085938 -12.005859375 138.849609375 -12.005859375 c 0
 76.8779296875 -12.005859375 23.857421875 25.556640625 1 79.22265625 c 1
 1 79.2236328125 67.2431640625 107.434570312 67.2431640625 107.434570312 c 1
 79.12890625 79.529296875 106.69921875 59.9970703125 138.923828125 59.9970703125 c 0
 142.40234375 59.9970703125 145.827148438 60.224609375 149.185546875 60.6669921875 c 0
 187.392578125 65.7001953125 217.005859375 98.5966796875 217.004882812 138 c 1
 217.00390625 768 l 1
 289.00390625 768 l 1
 289.004882812 138 l 1xd0
EndSplineSet
EndChar

StartChar: K
Encoding: 75 75 16
Width: 290
Flags: HW
LayerCount: 2
Fore
SplineSet
73 312 m 5
 102.84375 378.709960938 l 1
 213.965820312 0 l 1
 289 0 l 1
 148.158203125 480 l 1
 277 768 l 1
 198.125 768 l 1
 73 488.309570312 l 1
 73 768 l 1
 1 768 l 1
 1 0 l 1
 73 0 l 1
 73 312 l 5
EndSplineSet
EndChar

StartChar: L
Encoding: 76 76 17
Width: 260
Flags: HW
HStem: 0 72<73 259> 748 20G<1 73> 748 20G<1 73>
VStem: 1 72<72 768>
LayerCount: 2
Fore
SplineSet
1 0 m 5xd0
 1 768 l 5
 73 768 l 5
 73 72 l 5
 259 72 l 5
 259 0 l 5
 1 0 l 5xd0
EndSplineSet
EndChar

StartChar: M
Encoding: 77 77 18
Width: 338
Flags: HW
LayerCount: 2
Fore
SplineSet
73 504 m 5
 169 168 l 1
 265 504 l 1
 265 0 l 1
 337 0 l 1
 337 768 l 1
 265.547851562 768 l 1
 265.547851562 768 169 430.08203125 169 430.083007812 c 1
 72.453125 768 l 1
 1 768 l 1
 1 0 l 1
 73 0 l 1
 73 504 l 5
EndSplineSet
EndChar

StartChar: zero
Encoding: 48 48 19
Width: 314
Flags: HW
HStem: -12 72<107.142 206.939> 708 72<107.143 206.939>
VStem: 1 72.002<123.39 646.732> 241.081 72.001<121.269 644.611>
LayerCount: 2
Fore
SplineSet
218.573242188 655.865234375 m 4
 213.657226562 685.401367188 187.9609375 708 157.041992188 708 c 4
 126.122070312 708 100.424804688 685.39453125 95.509765625 655.861328125 c 4
 80.7060546875 566.91015625 73.001953125 478.677734375 73.001953125 385.552734375 c 4
 73.001953125 292.426757812 80.705078125 201.090820312 95.5087890625 112.138671875 c 4
 100.422851562 82.6083984375 126.12109375 60 157.041015625 60 c 4
 187.9609375 60 213.658203125 82.6044921875 218.573242188 112.138671875 c 4
 233.376953125 201.08984375 241.081054688 289.322265625 241.081054688 382.446289062 c 4
 241.081054688 475.5703125 233.376953125 566.9140625 218.573242188 655.865234375 c 4
289.596679688 100.317382812 m 4
 279.005859375 36.6953125 223.6484375 -12 157.041015625 -12 c 4
 90.4326171875 -12 35.07421875 36.6982421875 24.486328125 100.31640625 c 4
 9.0380859375 193.137695312 1 288.4453125 1 385.62109375 c 4
 1 482.794921875 9.0390625 574.86328125 24.486328125 667.682617188 c 4
 35.0751953125 731.306640625 90.43359375 780 157.041992188 780 c 4
 223.6484375 780 279.005859375 731.302734375 289.596679688 667.681640625 c 4
 305.044921875 574.857421875 313.08203125 479.551757812 313.08203125 382.37890625 c 4
 313.08203125 285.205078125 305.044921875 193.140625 289.596679688 100.317382812 c 4
EndSplineSet
EndChar

StartChar: P
Encoding: 80 80 20
Width: 290
Flags: HW
HStem: 336 72<110.98 174.818> 696 72<110.981 174.821>
VStem: 216.896 71.9648<451.908 652.097>
LayerCount: 2
Fore
SplineSet
110.98046875 335.997070312 m 1
 179.862304688 335.997070312 239.03515625 377.412109375 264.953125 436.791992188 c 0
 280.330078125 472.021484375 288.861328125 511.3515625 288.861328125 552.21875 c 0
 288.861328125 593.083984375 280.33203125 631.97265625 264.95703125 667.19921875 c 0
 239.041015625 726.581054688 179.865234375 768 110.981445312 768 c 1
 1 768 l 1
 1 0 l 1
 73 0 l 1
 73 336 l 1
 110.98046875 335.997070312 l 1
110.981445312 696 m 1
 150.342773438 696 184.158203125 672.330078125 198.966796875 638.399414062 c 0
 210.498046875 611.978515625 216.896484375 582.813476562 216.896484375 552.1640625 c 0
 216.896484375 521.513671875 210.498046875 492.015625 198.965820312 465.594726562 c 0
 184.15625 431.6640625 150.342773438 407.997070312 110.98046875 407.997070312 c 1
 73 408 l 1
 73 696 l 1
 110.981445312 696 l 1
EndSplineSet
EndChar

StartChar: Q
Encoding: 81 81 21
Width: 314
Flags: HW
LayerCount: 2
Fore
SplineSet
95.5087890625 112.133789062 m 0
 80.705078125 201.08203125 73.0009765625 292.426757812 73.0009765625 385.552734375 c 0
 73.0009765625 478.677734375 80.705078125 566.91015625 95.5087890625 655.861328125 c 0
 100.423828125 685.395507812 126.12109375 708 157.041015625 708 c 0
 187.959960938 708 213.657226562 685.393554688 218.573242188 655.861328125 c 0
 233.377929688 566.90625 241.080078125 475.571289062 241.080078125 382.446289062 c 0
 241.080078125 289.322265625 233.377929688 201.08984375 218.573242188 112.138671875 c 0
 217.259765625 104.24609375 214.420898438 96.7275390625 210.436523438 90.1298828125 c 0
 177.258789062 140.834960938 l 1
 127.041015625 108 l 1
 127.041015625 108 158.3984375 60.0146484375 158.397460938 60.0146484375 c 0
 157.939453125 60.0048828125 157.501953125 60 157.041015625 60 c 0
 126.12109375 60 100.423828125 82.599609375 95.5087890625 112.133789062 c 0
24.4853515625 100.31640625 m 0
 35.0732421875 36.6982421875 90.4326171875 -12 157.041015625 -12 c 0
 172.318359375 -12 187.036132812 -9.4072265625 200.725585938 -4.701171875 c 1
 229.041015625 -48 l 1
 279.258789062 -15.1650390625 l 1
 251.696289062 26.9951171875 l 0
 271.258789062 46.4091796875 284.870117188 71.9296875 289.594726562 100.313476562 c 0
 305.044921875 193.1328125 313.08203125 285.205078125 313.08203125 382.37890625 c 0
 313.08203125 479.551757812 305.043945312 574.857421875 289.595703125 667.681640625 c 0
 279.004882812 731.302734375 223.647460938 780 157.041015625 780 c 0
 90.4326171875 780 35.07421875 731.306640625 24.4853515625 667.682617188 c 0
 9.0380859375 574.86328125 1 482.794921875 1 385.62109375 c 0
 1 288.4453125 9.037109375 193.137695312 24.4853515625 100.31640625 c 0
EndSplineSet
EndChar

StartChar: T
Encoding: 84 84 22
Width: 260
Flags: HW
HStem: 0 21G<94 166> 702 66<1.001 94 166 259.001>
VStem: 94 72<0 702>
LayerCount: 2
Fore
SplineSet
166 0 m 5
 94 0 l 5
 94 702 l 5
 1 702 l 5
 1.0009765625 768 l 5
 259.000976562 768 l 5
 259.000976562 702 l 5
 166 702 l 5
 166 0 l 5
EndSplineSet
EndChar

StartChar: U
Encoding: 85 85 23
Width: 290
Flags: HW
LayerCount: 2
Fore
SplineSet
73.0009765625 132 m 5
 73.0009765625 105.340820312 87.4453125 82.09375 109.000976562 69.646484375 c 0
 119.576171875 63.5400390625 132 60.0458984375 145.078125 60.0458984375 c 0
 158.157226562 60.0458984375 170.42578125 63.5400390625 181.000976562 69.646484375 c 0
 202.556640625 82.09375 217.000976562 105.340820312 217.000976562 132 c 1
 217.000976562 768 l 1
 289 768 l 1
 289.000976562 132 l 0
 289.000976562 78.681640625 260.114257812 32.18359375 217.000976562 7.2919921875 c 0
 195.850585938 -4.9189453125 171.3125 -11.908203125 145.155273438 -11.908203125 c 0
 118.998046875 -11.908203125 94.1513671875 -4.9189453125 73.0009765625 7.2919921875 c 0
 29.8876953125 32.18359375 1.0009765625 78.681640625 1.0009765625 132 c 1
 1 768 l 1
 73.0009765625 768 l 1
 73.0009765625 132 l 5
EndSplineSet
EndChar

StartChar: W
Encoding: 87 87 24
Width: 422
Flags: HW
VStem: 97 66<0 64.512> 186.44 49.1191<703.491 768> 259 66<0 64.512>
CounterMasks: 1 e0
LayerCount: 2
Fore
SplineSet
348.436523438 768 m 1
 292 316.494140625 l 1
 292 316.494140625 235.55859375 768 235.559570312 768 c 1
 186.440429688 768 l 1
 130.000976562 316.485351562 l 1
 73.5625 768 l 1
 1 768 l 1
 97 0 l 5
 163 0 l 1
 211 384 l 1
 259 0 l 1
 325 0 l 1
 421 768 l 1
 348.436523438 768 l 1
EndSplineSet
EndChar

StartChar: X
Encoding: 88 88 25
Width: 290
Flags: HW
HStem: 0 21G<1 80.982 209.018 289> 748 20G<7 86.98 203.019 283> 748 20G<7 86.98 203.019 283>
VStem: 1 288
LayerCount: 2
Fore
SplineSet
81.578125 768 m 1xd0
 145 533.176757812 l 1
 208.420898438 768 l 1
 283 768 l 1
 182.290039062 395.106445312 l 1
 289 0 l 1
 214.419921875 0 l 1
 145 257.036132812 l 1
 75.580078125 0 l 1
 1 0 l 1
 107.24609375 393.38671875 l 1
 7 768 l 1
 81.578125 768 l 1xd0
EndSplineSet
EndChar

StartChar: Y
Encoding: 89 89 26
Width: 290
Flags: HW
VStem: 1 73.8916<733.056 768> 109 72<300 334.944> 215.107 73.8926<733.056 768>
LayerCount: 2
Fore
SplineSet
1 768 m 1
 109 300 l 1
 109 0 l 1
 181 0 l 1
 181 300 l 1
 289 768 l 1
 215.107421875 768 l 1
 145 464.200195312 l 1
 74.8916015625 768 l 5
 1 768 l 1
EndSplineSet
EndChar

StartChar: Z
Encoding: 90 90 27
Width: 290
Flags: HW
HStem: 0 72<80.693 289> 696 72<19 209.306>
VStem: 1 288<0 72>
LayerCount: 2
Fore
SplineSet
19 768 m 1
 289 768 l 1
 289 708 l 1
 80.693359375 72 l 1
 289 72 l 1
 289 0 l 1
 1 0 l 1
 1 60 l 1
 209.305664062 696 l 1
 19 696 l 1
 19 768 l 1
EndSplineSet
EndChar

StartChar: one
Encoding: 49 49 28
Width: 134
Flags: HW
VStem: 1 132<720.001 732.171>
LayerCount: 2
Fore
SplineSet
66.982421875 767.979492188 m 1
 49.3525390625 746.913085938 26.85546875 730.430664062 1.00390625 720.000976562 c 1
 1 660 l 5
 61 660 l 1
 61 0 l 1
 133 0 l 1
 133 768 l 1
 66.982421875 767.979492188 l 1
66.9990234375 767.999023438 m 0
 66.986328125 767.9921875 66.9736328125 767.986328125 66.9609375 767.979492188 c 1024
EndSplineSet
EndChar

StartChar: two
Encoding: 50 50 29
Width: 290
Flags: HW
HStem: 707.992 71.96<90.8038 199.496>
VStem: 1.02622 72<636 688.343> 216.972 72.0059<538.365 626.688 636.077 671.503>
LayerCount: 2
Fore
SplineSet
73 636 m 5
 73 669.286132812 95.6591796875 697.3203125 126.364257812 705.546875 c 0
 132.31640625 707.141601562 138.5703125 707.9921875 145.022460938 707.9921875 c 0
 171.681640625 707.9921875 194.908203125 693.556640625 207.353515625 672 c 0
 213.458984375 661.424804688 216.954101562 649.15625 216.954101562 636.077148438 c 0
 216.954101562 632.896484375 217.15234375 629.711914062 216.39453125 626.6875 c 0
 204.810546875 559.571289062 178.55078125 496.329101562 142.0390625 441.814453125 c 0
 57.146484375 315.063476562 5.6640625 162.626953125 1.0009765625 0.0009765625 c 1
 289 0 l 1
 289 72 l 1
 78.7001953125 72.01171875 l 1
 93.9267578125 192.34765625 137.536132812 305.616210938 201.999023438 401.956054688 c 0
 244.454101562 465.405273438 277.234375 538.75390625 287.485351562 617.413085938 c 0
 288.286132812 623.557617188 288.959960938 629.723632812 288.959960938 636.0859375 c 0
 288.959960938 671.27734375 276.30859375 703.537109375 255.310546875 728.561523438 c 0
 228.88671875 760.052734375 189.231445312 779.952148438 144.947265625 779.952148438 c 0
 127.671875 779.952148438 111.102539062 776.904296875 95.75 771.315429688 c 0
 40.4716796875 751.192382812 1 698.200195312 1 636 c 0
 0.9990234375 636 1 612 1 612 c 1
 73 612 l 1
 73 636 l 5
141.765625 441.995117188 m 1
 142.310546875 441.633789062 l 1025
201.7265625 402.13671875 m 1
 202.270507812 401.774414062 l 1025
EndSplineSet
EndChar

StartChar: three
Encoding: 51 51 30
Width: 290
Flags: HW
HStem: -12 72<92.893 192.187> 384 72<121 186.313> 708 72<84.619 189.205>
VStem: 1 72<79.8944 156 648 696.381> 205.016 72.002<73.0886 225.38 229.524 378.346 493.237 691.84> 217.002 72<83.7568 370.306>
LayerCount: 2
Fore
SplineSet
121 456 m 5xf4
 144.400390625 456 l 1
 166.60546875 456 185.30078125 471.124023438 190.7734375 491.61328125 c 0
 200.01953125 526.234375 205.015625 562.048828125 205.015625 599.568359375 c 0
 205.015625 618.703125 203.733398438 637.541992188 201.250976562 656.000976562 c 0
 197.30859375 685.310546875 172.166992188 708 141.786132812 708 c 0
 133 708 l 0
 99.884765625 708 73 681.115234375 73 648 c 1
 1 648 l 0
 1 720.852539062 60.1474609375 780 133 780 c 0
 141.786132812 780 l 1
 208.625 780 263.931640625 730.078125 272.606445312 665.599609375 c 0
 275.515625 643.974609375 277.017578125 621.908203125 277.017578125 599.493164062 c 0xf8
 277.017578125 555.541992188 271.16796875 513.58984375 260.3359375 473.033203125 c 0
 255.790039062 456.012695312 247.623046875 440.454101562 236.6640625 427.295898438 c 1
 257.07421875 410.021484375 271.442382812 385.819335938 276.657226562 358.500976562 c 0
 284.76171875 316.045898438 289.001953125 272.2265625 289.001953125 227.424804688 c 0
 289.001953125 183.76953125 284.9765625 142.2109375 277.272460938 100.774414062 c 0
 272.079101562 72.84375 258.48046875 47.720703125 239.178710938 28.4189453125 c 0
 214.19921875 3.439453125 179.6796875 -12 141.59765625 -12 c 0
 139 -12 l 1
 100.916992188 -12 66.3984375 3.439453125 41.4189453125 28.4189453125 c 0
 16.439453125 53.3984375 1 87.91796875 1 126 c 0
 1 156 l 1
 73 156 l 1
 73 126 l 1
 73 107.787109375 80.3837890625 91.27734375 92.330078125 79.3310546875 c 0
 104.27734375 67.3837890625 120.786132812 60 139 60 c 0
 141.59765625 60 l 1
 159.810546875 60 176.319335938 67.3837890625 188.266601562 79.3310546875 c 0
 197.498046875 88.5625 204.002929688 100.577148438 206.486328125 113.935546875 c 0
 213.392578125 151.0859375 217.001953125 188.344726562 217.001953125 227.484375 c 0
 217.001953125 267.650390625 213.19921875 306.936523438 205.93359375 345 c 0
 201.700195312 367.176757812 182.186523438 384 158.784179688 384 c 1
 121 384 l 1
 121 456 l 5xf4
EndSplineSet
EndChar

StartChar: four
Encoding: 52 52 31
Width: 338
Flags: HW
HStem: 0 21G<217 289> 180 66<72.427 217 289 337> 748 20G<208.724 289> 748 20G<208.724 289>
VStem: 217 72<0 180 246 595.383>
LayerCount: 2
Fore
SplineSet
1 246 m 1xe8
 217 768 l 1
 289 768 l 1
 289 246 l 1
 337 246 l 1
 337 180 l 1
 289 180 l 1
 289 0 l 1
 217 0 l 1
 217 180 l 1
 1 180 l 1
 1 246 l 1xe8
217 595.3828125 m 5
 72.4267578125 246 l 1
 217 246 l 1
 217 595.3828125 l 5
EndSplineSet
EndChar

StartChar: five
Encoding: 53 53 32
Width: 290
Flags: HW
HStem: -11.8877 71.96<23.6027 149.361> 432 72<91.46 188.074>
VStem: 7 73.9834<384.025 421.317> 216.884 71.9756<148.622 401.632>
LayerCount: 2
Fore
SplineSet
80.9833984375 384.025390625 m 1
 86.576171875 411.362304688 110.78515625 432 139.765625 432 c 0
 165.5546875 432 187.544921875 415.719726562 196.021484375 392.864257812 c 0
 209.512695312 356.499023438 216.883789062 317.172851562 216.883789062 276.137695312 c 0
 216.883789062 220.625 203.307617188 167.759765625 179.42578125 121.602539062 c 0
 169.370117188 102.171875 154.077148438 86.18359375 135.1796875 75.2734375 c 0
 118.435546875 65.6064453125 99.009765625 60.072265625 78.3017578125 60.072265625 c 0
 61.4677734375 60.072265625 45.26171875 63.7158203125 30.875 70.2783203125 c 1
 30.875 70.2783203125 1.0029296875 4.7705078125 1 4.7705078125 c 1
 24.4755859375 -5.9365234375 50.9013671875 -11.8876953125 78.3681640625 -11.8876953125 c 0
 109.265625 -11.8876953125 138.412109375 -4.337890625 164.064453125 9.015625 c 0
 198.122070312 26.7451171875 225.715820312 54.404296875 243.368164062 88.509765625 c 0
 272.376953125 144.555664062 288.859375 208.755859375 288.859375 276.168945312 c 0
 288.859375 325.993164062 279.91015625 373.743164062 263.529296875 417.8984375 c 0
 244.881835938 468.180664062 196.501953125 504 139.765625 504 c 0
 118.525390625 504 98.3212890625 498.89453125 80.537109375 489.965820312 c 1
 83.8837890625 696 l 1
 277 696 l 1
 277 768 l 1
 13 768 l 1
 7 384 l 1
 80.9833984375 384.025390625 l 1
EndSplineSet
EndChar

StartChar: six
Encoding: 54 54 33
Width: 290
Flags: HW
HStem: -11.9219 71.9414<96.697 193.347> 383.989 71.9512<96.448 191.758>
VStem: 1 72.002<78.8729 363.995> 217.077 72.001<79.6619 364.338>
LayerCount: 2
Fore
SplineSet
16.376953125 431.620117188 m 0
 38.0703125 579.057617188 124.741210938 705.483398438 246.88671875 780 c 1
 246.900390625 780.0078125 284.374023438 718.528320312 284.38671875 718.536132812 c 1
 186.947265625 659.090820312 116.193359375 560.97265625 92.146484375 445.674804688 c 0
 108.6171875 452.215820312 126.28125 455.940429688 144.953125 455.940429688 c 0
 174.897460938 455.940429688 202.889648438 446.54296875 225.708007812 430.565429688 c 0
 259.41796875 406.961914062 282.188476562 368.909179688 285.317382812 325.463867188 c 0
 287.809570312 290.868164062 289.078125 255.93359375 289.078125 220.706054688 c 0
 289.078125 185.478515625 287.809570312 153.131835938 285.317382812 118.53515625 c 0
 282.186523438 75.0908203125 259.41796875 37.037109375 225.708007812 13.4345703125 c 0
 202.888671875 -2.54296875 175.1171875 -11.921875 145.172851562 -11.921875 c 0
 110.801757812 -11.921875 79.0771484375 0.3955078125 54.6357421875 20.904296875 c 0
 26.326171875 44.658203125 7.576171875 79.4345703125 4.759765625 118.533203125 c 0
 2.2666015625 153.127929688 1 188.065429688 1 223.293945312 c 0
 1 294.986328125 6.240234375 362.7265625 16.376953125 431.620117188 c 0
76.5751953125 123.709960938 m 0
 77.9501953125 104.631835938 87.0986328125 87.65234375 100.916992188 76.05859375 c 0
 112.845703125 66.0498046875 128.3046875 60.01953125 145.080078125 60.01953125 c 0
 161.854492188 60.01953125 177.232421875 66.0498046875 189.161132812 76.05859375 c 0
 202.978515625 87.6513671875 212.127929688 104.626953125 213.50390625 123.708984375 c 0
 215.87109375 156.576171875 217.077148438 187.3046875 217.077148438 220.770507812 c 0
 217.077148438 254.236328125 215.87109375 287.423828125 213.50390625 320.290039062 c 0
 212.026367188 340.788085938 201.58984375 358.833007812 186.029296875 370.416992188 c 0
 174.596679688 378.927734375 160.341796875 383.989257812 145.0078125 383.989257812 c 0
 127.510742188 383.989257812 111.534179688 377.428710938 99.40625 366.635742188 c 0
 86.4384765625 355.094726562 77.8994140625 338.66796875 76.5751953125 320.291992188 c 0
 74.20703125 287.424804688 73.001953125 256.692382812 73.001953125 223.2265625 c 0
 73.001953125 189.759765625 74.20703125 156.577148438 76.5751953125 123.709960938 c 0
EndSplineSet
EndChar

StartChar: nine
Encoding: 57 57 34
Width: 290
Flags: HW
HStem: 312.138 71.9512<98.32 193.63> 708.059 71.9414<96.731 193.381>
VStem: 1 72.001<403.741 688.416> 217.076 72.002<404.083 689.205>
LayerCount: 2
Fore
SplineSet
273.701171875 336.458007812 m 0
 252.0078125 189.020507812 165.336914062 62.5947265625 43.19140625 -11.921875 c 1
 43.177734375 -11.9296875 5.7041015625 49.5498046875 5.69140625 49.5419921875 c 1
 103.130859375 108.987304688 173.884765625 207.10546875 197.931640625 322.403320312 c 0
 181.4609375 315.862304688 163.796875 312.137695312 145.125 312.137695312 c 0
 115.180664062 312.137695312 87.1884765625 321.53515625 64.3701171875 337.512695312 c 0
 30.66015625 361.116210938 7.8896484375 399.168945312 4.7607421875 442.614257812 c 0
 2.2685546875 477.209960938 1 512.14453125 1 547.372070312 c 0
 1 582.599609375 2.2685546875 614.946289062 4.7607421875 649.54296875 c 0
 7.8916015625 692.987304688 30.66015625 731.041015625 64.3701171875 754.643554688 c 0
 87.189453125 770.62109375 114.9609375 780 144.905273438 780 c 0
 179.276367188 780 211.000976562 767.682617188 235.442382812 747.173828125 c 0
 263.751953125 723.419921875 282.501953125 688.643554688 285.318359375 649.544921875 c 0
 287.811523438 614.950195312 289.078125 580.012695312 289.078125 544.784179688 c 0
 289.078125 473.091796875 283.837890625 405.3515625 273.701171875 336.458007812 c 0
213.502929688 644.368164062 m 0
 212.127929688 663.446289062 202.979492188 680.42578125 189.161132812 692.01953125 c 0
 177.232421875 702.028320312 161.7734375 708.05859375 144.998046875 708.05859375 c 0
 128.223632812 708.05859375 112.845703125 702.028320312 100.916992188 692.01953125 c 0
 87.099609375 680.426757812 77.9501953125 663.451171875 76.57421875 644.369140625 c 0
 74.20703125 611.501953125 73.0009765625 580.7734375 73.0009765625 547.307617188 c 0
 73.0009765625 513.841796875 74.20703125 480.654296875 76.57421875 447.788085938 c 0
 78.0517578125 427.290039062 88.48828125 409.245117188 104.048828125 397.661132812 c 0
 115.481445312 389.150390625 129.736328125 384.088867188 145.0703125 384.088867188 c 0
 162.567382812 384.088867188 178.543945312 390.649414062 190.671875 401.442382812 c 0
 203.639648438 412.983398438 212.178710938 429.41015625 213.502929688 447.786132812 c 0
 215.87109375 480.653320312 217.076171875 511.385742188 217.076171875 544.8515625 c 0
 217.076171875 578.318359375 215.87109375 611.500976562 213.502929688 644.368164062 c 0
EndSplineSet
EndChar

StartChar: seven
Encoding: 55 55 35
Width: 290
Flags: HW
VStem: 25.0068 72.6631<0.0419922 134.267>
LayerCount: 2
Fore
SplineSet
25.0068359375 0.0419921875 m 0
 25.0068359375 0.0419921875 97.669921875 0.021484375 97.669921875 0.0234375 c 0
 136.551757812 239.666015625 201.611328125 475.954101562 288.545898438 695.985351562 c 1
 289 768 l 1
 1 768 l 1
 1 696 l 1
 211.58203125 696.009765625 l 1
 127.029296875 475.634765625 63.0166015625 239.397460938 25.0068359375 0.0419921875 c 0
EndSplineSet
EndChar

StartChar: eight
Encoding: 56 56 62
Width: 290
Flags: HW
LayerCount: 2
Fore
SplineSet
19.421875 345.311523438 m 0
 25.498046875 370.26171875 38.78515625 392.204101562 56.9990234375 409.14453125 c 1
 45.533203125 420.690429688 36.439453125 434.978515625 30.4052734375 450.59765625 c 0
 15.3916015625 489.463867188 7.1572265625 531.689453125 7.1572265625 575.825195312 c 0
 7.1572265625 619.959960938 15.3916015625 662.537109375 30.4052734375 701.403320312 c 0
 48.173828125 747.399414062 92.7919921875 780 145.025390625 780 c 0
 197.258789062 780 241.876953125 747.403320312 259.645507812 701.405273438 c 0
 274.658203125 662.54296875 282.893554688 620.311523438 282.893554688 576.176757812 c 0
 282.893554688 532.041015625 274.657226562 489.458007812 259.645507812 450.596679688 c 0
 253.611328125 434.9765625 244.434570312 420.771484375 233.051757812 409.145507812 c 1
 251.221679688 392.215820312 264.563476562 370.223632812 270.627929688 345.311523438 c 0
 282.622070312 296.057617188 288.979492188 244.606445312 288.979492188 191.682617188 c 0
 288.979492188 163.782226562 287.282226562 137.27734375 283.854492188 110.301757812 c 0
 278.227539062 66.0283203125 252.026367188 28.1259765625 214.998046875 6.7490234375 c 0
 194.442382812 -5.1181640625 170.595703125 -11.9111328125 145.174804688 -11.9111328125 c 0
 119.754882812 -11.9111328125 95.607421875 -5.1181640625 75.052734375 6.7490234375 c 0
 38.0244140625 28.126953125 11.822265625 66.025390625 6.1953125 110.301757812 c 0
 2.7666015625 137.276367188 1 164.76953125 1 192.669921875 c 0
 1 245.59375 7.4287109375 296.056640625 19.421875 345.311523438 c 0
77.62109375 119.37890625 m 0
 80.353515625 97.8818359375 93.0751953125 79.482421875 111.052734375 69.1025390625 c 0
 121.032226562 63.3408203125 132.755859375 60.04296875 145.09765625 60.04296875 c 0
 157.440429688 60.04296875 169.018554688 63.3408203125 178.998046875 69.1025390625 c 0
 196.975585938 79.4814453125 209.697265625 97.8828125 212.4296875 119.377929688 c 0
 215.4765625 143.357421875 216.985351562 166.91796875 216.985351562 191.71875 c 0
 216.985351562 238.76171875 211.333007812 284.494140625 200.671875 328.276367188 c 0
 197.061523438 343.10546875 187.736328125 355.673828125 175.092773438 363.473632812 c 0
 166.364257812 368.858398438 156.025390625 372.017578125 145.026367188 372.017578125 c 0
 128.618164062 372.017578125 113.8125 365.102539062 103.366210938 354.030273438 c 0
 96.666015625 346.928710938 91.763671875 338.072265625 89.3779296875 328.27734375 c 0
 78.7177734375 284.49609375 73.0029296875 239.638671875 73.0029296875 192.596679688 c 0
 73.0029296875 167.795898438 74.57421875 143.357421875 77.62109375 119.37890625 c 0
192.483398438 476.543945312 m 0
 204.391601562 507.368164062 210.920898438 541.135742188 210.920898438 576.139648438 c 0
 210.920898438 611.143554688 204.390625 644.630859375 192.482421875 675.456054688 c 0
 185.125976562 694.499023438 166.65234375 708 145.025390625 708 c 0
 123.3984375 708 104.923828125 694.501953125 97.568359375 675.458007812 c 0
 85.66015625 644.6328125 79.130859375 610.86328125 79.130859375 575.859375 c 0
 79.130859375 540.85546875 85.66015625 507.3671875 97.568359375 476.541992188 c 0
 101.780273438 465.637695312 109.573242188 456.59765625 119.586914062 450.81640625 c 0
 127.059570312 446.501953125 135.837890625 444.032226562 145.079101562 444.032226562 c 0
 154.3203125 444.032226562 162.990234375 446.501953125 170.462890625 450.81640625 c 0
 180.477539062 456.598632812 188.270507812 465.639648438 192.483398438 476.543945312 c 0
EndSplineSet
EndChar

StartChar: period
Encoding: 46 46 63
Width: 98
Flags: HW
HStem: 0 104<8.4628 97.537>
VStem: 1 104<7.4628 96.5372>
LayerCount: 2
Fore
SplineSet
1 36 m 4
 1 62 23 84 49 84 c 4
 75 84 97 62 97 36 c 4
 97 10 75 -12 49 -12 c 4
 23 -12 1 10 1 36 c 4
EndSplineSet
EndChar

StartChar: colon
Encoding: 58 58 64
Width: 98
Flags: HW
LayerCount: 2
Fore
SplineSet
1 540 m 0
 1 566 23 588 49 588 c 0
 75 588 97 566 97 540 c 0
 97 514 75 492 49 492 c 0
 23 492 1 514 1 540 c 0
1 36 m 0
 1 62 23 84 49 84 c 0
 75 84 97 62 97 36 c 0
 97 10 75 -12 49 -12 c 0
 23 -12 1 10 1 36 c 0
EndSplineSet
EndChar

StartChar: dollar
Encoding: 36 36 66
Width: 290
Flags: HW
LayerCount: 2
Fore
SplineSet
73.0009765625 132 m 2
 73.0009765625 92.26171875 105.262695312 60 145.000976562 60 c 0
 184.73828125 60 217.000976562 92.26171875 217.000976562 132 c 0
 217.000976562 226.85546875 181.483398438 317.985351562 118.033203125 388.495117188 c 0
 54.560546875 459.029296875 19.001953125 550.234375 19.0009765625 645.061523438 c 0
 19.0009765625 705.278320312 58.5107421875 756.299804688 113 773.657226562 c 1
 113 864 l 1
 185 864 l 1
 185 776.41796875 l 1
 244.587890625 762.393554688 289 708.842773438 289 645 c 2
 289 612 l 1
 217.000976562 612 l 1
 217 645 l 2
 217 679.770507812 188.770507812 708 154 708 c 0
 119.229492188 708 91.0009765625 679.83203125 91.0009765625 645.061523438 c 0
 91.001953125 568.047851562 120.006835938 493.91796875 171.537109375 436.674804688 c 0
 246.916992188 352.9375 289.000976562 244.668945312 289.000976562 132 c 0
 289.000976562 66.4013671875 245.041992188 10.98828125 185 -6.3623046875 c 1
 185 -96 l 1
 113 -96 l 1
 113 -8.4248046875 l 1
 48.9033203125 6.142578125 1.0009765625 63.521484375 1.0009765625 132 c 2
 1 180 l 1
 73.0009765625 180 l 1
 73.0009765625 132 l 2
EndSplineSet
EndChar

StartChar: exclam
Encoding: 33 33 67
Width: 98
Flags: HW
LayerCount: 2
Fore
SplineSet
13 768 m 1
 85 768 l 9
 85 504 l 9
 73 216 l 1
 25 216 l 1
 13 504 l 1
 13 768 l 1
1 36 m 1
 1 62 23 84 49 84 c 1
 75 84 97 62 97 36 c 1
 97 10 75 -12 49 -12 c 1
 23 -12 1 10 1 36 c 1
EndSplineSet
EndChar

StartChar: quotedbl
Encoding: 34 34 68
Width: 218
Flags: HW
LayerCount: 2
Fore
SplineSet
133 768 m 5
 173 768 l 5
 217 768 l 5
 199 480 l 13
 151 480 l 5
 133 768 l 5
1 768 m 1
 41 768 l 1
 85 768 l 1
 67 480 l 9
 19 480 l 1
 1 768 l 1
EndSplineSet
EndChar

StartChar: quotesingle
Encoding: 39 39 69
Width: 86
Flags: HW
LayerCount: 2
Fore
SplineSet
1 768 m 5
 41 768 l 5
 85 768 l 5
 67 480 l 13
 19 480 l 5
 1 768 l 5
EndSplineSet
EndChar

StartChar: percent
Encoding: 37 37 70
Width: 610
Flags: HW
LayerCount: 2
Fore
SplineSet
472 768 m 21
 472 768 253.176757812 390.27734375 27 0 c 5
 108 0 l 5
 333 390 551 768 551 768 c 5
 472 768 l 21
418 768 m 29
 418 768 535 768 609 768 c 1053
481.020507812 -12 m 4
 438.768554688 -12 403.697265625 18.873046875 396.98828125 59.185546875 c 4
 389.102539062 106.563476562 385 155.2109375 385 204.810546875 c 4
 385 254.411132812 389.114257812 301.50390625 396.98828125 348.814453125 c 4
 403.698242188 389.129882812 438.76953125 420 481.021484375 420 c 4
 523.272460938 420 558.342773438 389.125976562 565.0546875 348.8125 c 4
 572.938476562 301.43359375 577.041015625 252.787109375 577.041015625 203.189453125 c 4
 577.041015625 153.588867188 572.927734375 106.498046875 565.053710938 59.185546875 c 4
 558.342773438 18.87109375 523.271484375 -12 481.020507812 -12 c 4
481.021484375 348 m 4
 474.508789062 348 469.052734375 343.221679688 468.009765625 336.958007812 c 4
 460.758789062 293.3828125 457.000976562 250.325195312 457.000976562 204.776367188 c 4
 457.000976562 159.224609375 460.768554688 114.549804688 468.009765625 71.041015625 c 4
 469.05078125 64.78125 474.508789062 60 481.020507812 60 c 4
 487.532226562 60 492.989257812 64.7783203125 494.032226562 71.0419921875 c 4
 501.283203125 114.6171875 505.041015625 157.674804688 505.041015625 203.22265625 c 4
 505.041015625 248.772460938 501.272460938 293.452148438 494.03125 336.9609375 c 4
 492.98828125 343.225585938 487.534179688 348 481.021484375 348 c 4
97.0205078125 348 m 4
 54.7685546875 348 19.697265625 378.873046875 12.98828125 419.185546875 c 4
 5.1025390625 466.563476562 1 515.2109375 1 564.810546875 c 4
 1 614.411132812 5.1142578125 661.50390625 12.98828125 708.814453125 c 4
 19.6982421875 749.129882812 54.76953125 780 97.021484375 780 c 4
 139.272460938 780 174.342773438 749.125976562 181.0546875 708.8125 c 4
 188.938476562 661.43359375 193.041015625 612.787109375 193.041015625 563.189453125 c 4
 193.041015625 513.588867188 188.927734375 466.498046875 181.053710938 419.185546875 c 4
 174.342773438 378.87109375 139.271484375 348 97.0205078125 348 c 4
97.021484375 708 m 4
 90.5087890625 708 85.052734375 703.221679688 84.009765625 696.958007812 c 4
 76.7587890625 653.3828125 73.0009765625 610.325195312 73.0009765625 564.776367188 c 4
 73.0009765625 519.224609375 76.7685546875 474.549804688 84.009765625 431.041015625 c 4
 85.05078125 424.78125 90.5087890625 420 97.0205078125 420 c 4
 103.532226562 420 108.989257812 424.778320312 110.032226562 431.041992188 c 4
 117.283203125 474.6171875 121.041015625 517.674804688 121.041015625 563.22265625 c 4
 121.041015625 608.772460938 117.272460938 653.452148438 110.03125 696.9609375 c 4
 108.98828125 703.225585938 103.534179688 708 97.021484375 708 c 4
EndSplineSet
EndChar

StartChar: slash
Encoding: 47 47 71
Width: 526
Flags: HW
LayerCount: 2
Fore
SplineSet
446 768 m 17
 446 768 227.176757812 390.27734375 1 0 c 1
 82 0 l 1
 307 390 525 768 525 768 c 1
 446 768 l 17
EndSplineSet
EndChar

StartChar: hyphen
Encoding: 45 45 72
Width: 242
Flags: HW
LayerCount: 2
Fore
SplineSet
1 420 m 1
 241 420 l 5
 241 348 l 5
 1 348 l 1
 1 420 l 1
EndSplineSet
EndChar
